<svg width="171" height="38" viewBox="0 0 171 38" fill="none" xmlns="http://www.w3.org/2000/svg">
<path fill-rule="evenodd" clip-rule="evenodd" d="M26.1564 15.8905L35.2534 10.4714C32.2031 4.28414 25.9391 0.0302586 18.6949 0L26.1564 15.8905Z" fill="black"/>
<path fill-rule="evenodd" clip-rule="evenodd" d="M27.3943 18.5266L33.1742 30.8382C35.7144 27.5908 37.234 23.4785 37.234 18.9988C37.234 16.5013 36.7572 14.1178 35.8982 11.9326L27.3943 18.5266Z" fill="black"/>
<path fill-rule="evenodd" clip-rule="evenodd" d="M6.67497 33.5738C9.90745 36.3361 14.0708 38 18.6175 38C23.9568 38 28.7674 35.7024 32.1636 32.0278L24.7959 20.4167L6.67497 33.5738Z" fill="black"/>
<path fill-rule="evenodd" clip-rule="evenodd" d="M0 18.9987C0 22.6845 1.0311 26.1222 2.81055 29.0369L16.5444 0.118164C7.23858 1.17116 0 9.22011 0 18.9987Z" fill="black"/>
<path fill-rule="evenodd" clip-rule="evenodd" d="M17.1153 10.4662C16.3815 12.0218 15.686 13.4897 14.9937 14.962L10.2078 25.1318L23.0617 17.6851L17.6981 9.23535L17.1153 10.4662Z" fill="black"/>
<path fill-rule="evenodd" clip-rule="evenodd" d="M67.0136 13.3081C65.4772 11.6386 63.3977 10.8025 60.7757 10.8025H55.307C52.907 10.8025 51.0981 11.5099 49.8744 12.9254C48.6508 14.3409 48.0368 16.5129 48.0368 19.4455V27.0375V27.0428H46.8991C46.0251 27.0428 45.298 26.9428 44.7185 26.7421C44.1377 26.54 43.6733 26.2669 43.3249 25.9207C42.9741 25.5767 42.7279 25.1632 42.5862 24.6839C42.4417 24.2031 42.3718 23.6959 42.3718 23.1603V3.88843H38.5007V23.1928C38.5007 24.3308 38.6503 25.3738 38.9462 26.3231C39.2406 27.2712 39.7157 28.0905 40.3716 28.7826C41.0288 29.4725 41.8747 30.0161 42.9145 30.4055C43.9532 30.7968 45.2048 30.9915 46.671 30.9915L48.0375 30.9918V34.4815H52.0082V30.9918H52.6091H55.4927H60.7774C63.3983 30.9918 65.4777 30.1637 67.0142 28.5057C68.5493 26.8496 69.3183 24.3139 69.3183 20.8982C69.3175 17.5078 68.5487 14.978 67.0136 13.3081ZM64.1289 25.6206C63.3417 26.5766 62.0875 27.0541 60.3634 27.0541H55.4919V27.042H52.6085V27.0367H52.0074V19.636C52.0074 17.8765 52.3471 16.615 53.0208 15.849C53.6955 15.0857 54.8441 14.7028 56.4653 14.7028H60.3634C62.0872 14.7028 63.3415 15.1862 64.1289 16.1551C64.9163 17.124 65.3081 18.7048 65.3081 20.8977C65.3081 23.0905 64.916 24.6632 64.1289 25.6206Z" fill="black"/>
<path fill-rule="evenodd" clip-rule="evenodd" d="M74.5569 3.51855V10.4753L81.5232 10.475C84.8724 10.475 87.3693 11.2525 89.0166 12.8081C90.6646 14.3629 91.4891 16.529 91.4891 19.3096L91.4904 30.6645H87.4816V19.3096C87.4816 17.7547 87.0066 16.5426 86.0575 15.6777C85.1084 14.8104 83.5974 14.3769 81.5232 14.3769H74.5569L74.5581 30.6653L70.5849 30.6651V3.51855H74.5569Z" fill="black"/>
<path fill-rule="evenodd" clip-rule="evenodd" d="M105.831 10.4741C107.056 10.4741 108.105 10.6415 108.98 10.9721C109.853 11.3027 110.571 11.7689 111.134 12.3677C111.695 12.9676 112.1 13.675 112.351 14.4899C112.599 15.3061 112.726 16.1849 112.726 17.1283V26.6134C112.726 27.3508 112.668 27.977 112.556 28.4861C112.445 28.9962 112.238 29.4103 111.938 29.7283C111.639 30.0476 111.221 30.2817 110.684 30.4371C110.146 30.5899 109.465 30.6652 108.643 30.6652L99.3888 30.6647C97.0383 30.6647 95.3477 30.1174 94.311 29.0199C93.2749 27.9233 92.757 26.4217 92.757 24.5082C92.757 23.5907 92.876 22.7739 93.113 22.0606C93.35 21.3484 93.7303 20.742 94.2561 20.2445C94.7809 19.749 95.466 19.3651 96.3153 19.0972C97.1639 18.8311 98.2014 18.6952 99.4249 18.6952L108.83 18.6949V17.166C108.83 16.3766 108.598 15.7127 108.135 15.1787C107.673 14.6426 106.894 14.3757 105.794 14.3757H93.9562V10.4741H105.831ZM107.742 26.7257C108.467 26.7257 108.831 26.3819 108.831 25.6931V21.9074L99.5004 21.9071C98.4506 21.9071 97.7142 22.1178 97.2892 22.5387C96.8632 22.9587 96.6536 23.538 96.6536 24.2781C96.6536 25.017 96.8627 25.609 97.2892 26.0557C97.715 26.501 98.4271 26.7251 99.4253 26.7251H107.742V26.7257Z" fill="black"/>
<path fill-rule="evenodd" clip-rule="evenodd" d="M113.992 30.6652H130.086C131.253 30.6652 132.266 30.5084 133.099 30.2024C133.922 29.8948 134.605 29.4695 135.126 28.9381C135.644 28.4094 136.026 27.763 136.263 27.0173C136.501 26.2581 136.622 25.416 136.622 24.5125C136.622 23.715 136.521 22.9569 136.32 22.2627C136.123 21.5886 135.769 20.9909 135.266 20.4893C134.758 19.9855 134.051 19.5735 133.161 19.2676C132.264 18.9577 131.097 18.8004 129.694 18.8004H124.835C123.61 18.8004 122.794 18.5884 122.339 18.1536C121.886 17.7216 121.655 17.0888 121.655 16.2754C121.655 15.4074 121.891 14.7425 122.358 14.2958C122.82 13.8539 123.573 13.6292 124.599 13.6292H151.715C152.93 13.6292 153.814 13.9407 154.343 14.5532C154.865 15.1566 155.129 15.9115 155.129 16.795V18.6401H145.053C143.803 18.6401 142.734 18.7787 141.873 19.0486C141.024 19.3167 140.33 19.7021 139.811 20.1942C139.295 20.6837 138.913 21.2891 138.68 21.993C138.442 22.709 138.32 23.5435 138.32 24.4735C138.32 26.3981 138.844 27.9275 139.88 29.0224C140.91 30.1118 142.639 30.6652 145.014 30.6652H154.693C155.529 30.6652 156.225 30.5877 156.764 30.4351C157.281 30.287 157.686 30.0607 157.967 29.7618C158.248 29.4619 158.446 29.0653 158.552 28.5775C158.666 28.0659 158.723 27.4239 158.723 26.6725V21.4145H160.649V23.6328C160.649 24.9921 160.765 26.1422 160.994 27.0511C161.217 27.9412 161.568 28.6597 162.036 29.1875C162.5 29.7103 163.103 30.0908 163.827 30.3161C164.571 30.5483 165.477 30.6652 166.52 30.6652H170.001V27.2788H167.382C166.326 27.2788 165.549 27.0242 165.074 26.5231C164.592 26.0191 164.359 25.1523 164.359 23.8728V13.6292H170.08V10.0432H164.359V5.04321H160.649V18.6401H158.723V16.7549C158.723 15.8 158.594 14.8967 158.341 14.0689C158.093 13.2563 157.682 12.5415 157.124 11.946C156.565 11.3509 155.837 10.8793 154.962 10.5468C154.077 10.2119 152.997 10.0432 151.754 10.0432H124.56C122.236 10.0432 120.554 10.575 119.561 11.6275C118.567 12.6794 118.062 14.137 118.062 15.9551C118.062 16.7292 118.164 17.4876 118.367 18.2071C118.563 18.9112 118.92 19.5427 119.425 20.0844C119.932 20.6265 120.633 21.0645 121.507 21.3825C122.389 21.7049 123.548 21.8678 124.951 21.8678H129.85C130.959 21.8678 131.745 22.0603 132.25 22.4591C132.768 22.8676 133.029 23.5435 133.029 24.4735C133.029 25.3701 132.79 26.0323 132.317 26.4403C131.849 26.8428 131.12 27.0383 130.086 27.0383H113.992V30.6652ZM142.647 26.2644C142.161 25.7535 141.914 25.0699 141.914 24.2329C141.914 23.3938 142.162 22.722 142.653 22.2366C143.147 21.7466 143.958 21.508 145.132 21.508H155.129V25.7124C155.129 26.5677 154.64 27.0383 153.753 27.0383H145.053C143.945 27.0383 143.136 26.7783 142.647 26.2644Z" fill="black"/>
</svg>
