<svg width="23" height="23" viewBox="0 0 23 23" fill="none" xmlns="http://www.w3.org/2000/svg">
<g id="01 align center">
<path id="Vector" d="M11.803 17.9167C12.1642 17.9173 12.522 17.8465 12.8559 17.7084C13.1897 17.5703 13.4929 17.3675 13.7481 17.1118L17.3405 13.5167L16.0444 12.2242L12.7141 15.5553L12.6903 0.5H10.857L10.8808 15.5407L7.56246 12.2223L6.2663 13.5167L9.85871 17.1091C10.1136 17.3651 10.4166 17.5683 10.7503 17.7069C11.0839 17.8454 11.4417 17.9167 11.803 17.9167Z" fill="white"/>
<path id="Vector_2" d="M20.9401 15.167V19.7503C20.9401 19.9934 20.8435 20.2266 20.6716 20.3985C20.4997 20.5704 20.2666 20.667 20.0234 20.667H3.52344C3.28032 20.667 3.04716 20.5704 2.87526 20.3985C2.70335 20.2266 2.60677 19.9934 2.60677 19.7503V15.167H0.773438V19.7503C0.773438 20.4796 1.06317 21.1791 1.57889 21.6948C2.09462 22.2106 2.79409 22.5003 3.52344 22.5003H20.0234C20.7528 22.5003 21.4523 22.2106 21.968 21.6948C22.4837 21.1791 22.7734 20.4796 22.7734 19.7503V15.167H20.9401Z" fill="white"/>
</g>
</svg>
