<svg width="21" height="22" viewBox="0 0 21 22" fill="none" xmlns="http://www.w3.org/2000/svg">
<g id="fi-br-play" clip-path="url(#clip0_3_217)">
<path id="Vector" d="M17.8833 7.59001L9.97911 1.79044C9.29092 1.28534 8.4762 0.980871 7.62542 0.910835C6.77464 0.840799 5.9211 1.00794 5.15958 1.3937C4.39805 1.77945 3.75835 2.36873 3.31149 3.09609C2.86464 3.82345 2.62814 4.66043 2.62823 5.51408V17.1132C2.62658 17.9672 2.86203 18.8049 3.30835 19.533C3.75467 20.2611 4.39434 20.851 5.15612 21.2371C5.9179 21.6231 6.77189 21.7901 7.62297 21.7194C8.47405 21.6488 9.28881 21.3432 9.9765 20.8369L17.885 15.0373C18.47 14.6086 18.9458 14.048 19.2738 13.401C19.6017 12.7541 19.7726 12.039 19.7726 11.3137C19.7726 10.5883 19.6017 9.87322 19.2738 9.22628C18.9458 8.57933 18.47 8.01876 17.885 7.59001H17.8833ZM16.3424 12.9362L8.43823 18.7358C8.13835 18.9561 7.78323 19.089 7.41236 19.1197C7.04148 19.1503 6.66936 19.0776 6.33736 18.9095C6.00535 18.7413 5.72647 18.4845 5.53169 18.1674C5.3369 17.8503 5.23386 17.4854 5.234 17.1132V5.51408C5.23002 5.1414 5.33147 4.77518 5.52664 4.45767C5.72182 4.14016 6.00278 3.88429 6.33711 3.71958C6.62018 3.57424 6.93354 3.49776 7.25174 3.49635C7.67815 3.49845 8.0927 3.63694 8.43476 3.89156L16.3389 9.69113C16.5938 9.87796 16.8011 10.1222 16.944 10.4041C17.0869 10.686 17.1614 10.9976 17.1614 11.3137C17.1614 11.6297 17.0869 11.9413 16.944 12.2232C16.8011 12.5051 16.5938 12.7494 16.3389 12.9362H16.3424Z" fill="#F22A69"/>
</g>
<defs>
<clipPath id="clip0_3_217">
<rect width="20.8462" height="20.8462" fill="white" transform="translate(0.109329 0.890747)"/>
</clipPath>
</defs>
</svg>
